<svg width="24" height="24" viewBox="0 0 24 24" fill="none" xmlns="http://www.w3.org/2000/svg">
<g clip-path="url(#clip0_1968_101)">
<mask id="mask0_1968_101" style="mask-type:luminance" maskUnits="userSpaceOnUse" x="0" y="0" width="24" height="24">
<path d="M24 0H0V24H24V0Z" fill="white"/>
</mask>
<g mask="url(#mask0_1968_101)">
<path d="M24 12.0021C23.9996 9.70884 23.3422 7.46378 22.1056 5.53262C20.8689 3.60146 19.1048 2.06508 17.0221 1.10536C14.9394 0.145649 12.6254 -0.197218 10.3538 0.117359C8.08235 0.431935 5.94854 1.39078 4.20505 2.88038C2.46156 4.36998 1.18139 6.32797 0.516104 8.52252C-0.149185 10.7171 -0.171736 13.0563 0.451122 15.2633C1.07398 17.4703 2.31616 19.4526 4.03061 20.9755C5.74506 22.4984 7.85999 23.4982 10.125 23.8566V15.4708H7.0785V12.0021H10.125V9.35827C10.125 6.35077 11.9167 4.68952 14.6572 4.68952C15.5573 4.702 16.4551 4.78021 17.3438 4.92352V7.87702H15.8302C15.5723 7.84277 15.31 7.867 15.0628 7.9479C14.8155 8.02881 14.5896 8.16431 14.4018 8.34439C14.214 8.52447 14.0691 8.74449 13.978 8.98816C13.8868 9.23183 13.8516 9.4929 13.875 9.75202V12.0021H17.2035L16.671 15.4708H13.875V23.8566C16.6978 23.41 19.2686 21.9706 21.1248 19.7975C22.9809 17.6243 24.0005 14.86 24 12.0021Z" fill="#121127"/>
</g>
</g>
<defs>
<clipPath id="clip0_1968_101">
<rect width="24" height="24" fill="white"/>
</clipPath>
</defs>
</svg>
