<svg width="24" height="24" viewBox="0 0 24 24" fill="none" xmlns="http://www.w3.org/2000/svg">
<g clip-path="url(#clip0_1968_107)">
<mask id="mask0_1968_107" style="mask-type:luminance" maskUnits="userSpaceOnUse" x="0" y="0" width="24" height="24">
<path d="M24 0H0V24H24V0Z" fill="white"/>
</mask>
<g mask="url(#mask0_1968_107)">
<path fill-rule="evenodd" clip-rule="evenodd" d="M12 0.300781C5.4 0.300781 0 5.70078 0 12.3007C0 17.6257 3.45 22.1258 8.175 23.7008C8.775 23.7758 9 23.4757 9 23.1007C9 22.8008 9 22.0508 9 21.0758C5.625 21.8258 4.95 19.5008 4.95 19.5008C4.425 18.1508 3.6 17.7758 3.6 17.7758C2.475 17.0258 3.675 17.0258 3.675 17.0258C4.875 17.1008 5.55 18.2257 5.55 18.2257C6.6 20.0258 8.325 19.5008 9.075 19.2008C9.15 18.4508 9.525 17.9258 9.825 17.6257C7.125 17.3258 4.35 16.2758 4.35 11.7008C4.35 10.4257 4.8 9.30078 5.55 8.47578C5.4 8.17578 5.025 6.97578 5.7 5.32578C5.7 5.32578 6.675 5.02578 9 6.52578C9.975 6.22578 10.95 6.15078 12 6.15078C13.05 6.15078 14.025 6.30078 15 6.52578C17.325 4.95078 18.3 5.25078 18.3 5.25078C18.975 6.90078 18.525 8.10078 18.45 8.40078C19.2 9.22578 19.65 10.2758 19.65 11.6257C19.65 16.2008 16.875 17.2507 14.175 17.5508C14.625 17.9258 15 18.6758 15 19.8008C15 21.3757 15 22.7257 15 23.1007C15 23.4008 15.225 23.7758 15.825 23.7008C20.55 22.1258 24 17.6257 24 12.3007C24 5.70078 18.6 0.300781 12 0.300781Z" fill="#121127"/>
</g>
</g>
<defs>
<clipPath id="clip0_1968_107">
<rect width="24" height="24" fill="white"/>
</clipPath>
</defs>
</svg>
