<svg width="24" height="24" viewBox="0 0 24 24" fill="none" xmlns="http://www.w3.org/2000/svg">
<g clip-path="url(#clip0_1968_113)">
<mask id="mask0_1968_113" style="mask-type:luminance" maskUnits="userSpaceOnUse" x="0" y="0" width="24" height="24">
<path d="M24 0H0V24H24V0Z" fill="white"/>
</mask>
<g mask="url(#mask0_1968_113)">
<path d="M12 2.775C15 2.775 15.36 2.78625 16.5458 2.84025C17.2593 2.84867 17.9662 2.97984 18.6353 3.228C19.1237 3.40832 19.5656 3.69588 19.9283 4.0695C20.3019 4.43218 20.5894 4.87402 20.7698 5.3625C21.0179 6.0316 21.1491 6.73841 21.1575 7.452C21.2115 8.64 21.225 9 21.225 12C21.225 15 21.2138 15.36 21.1598 16.5458C21.1513 17.2593 21.0202 17.9662 20.772 18.6353C20.5847 19.1202 20.2981 19.5606 19.9305 19.9282C19.5629 20.2958 19.1225 20.5825 18.6375 20.7698C17.9684 21.0179 17.2616 21.1491 16.548 21.1575C15.3623 21.2115 15.006 21.2228 12.0023 21.2228C8.9985 21.2228 8.64225 21.2115 7.4565 21.1575C6.74291 21.1491 6.0361 21.0179 5.367 20.7698C4.87852 20.5894 4.43668 20.3019 4.074 19.9282C3.70038 19.5656 3.41282 19.1237 3.2325 18.6353C2.98434 17.9662 2.85317 17.2593 2.84475 16.5458C2.7885 15.36 2.775 15.0037 2.775 12C2.775 8.99625 2.78625 8.64 2.84025 7.45425C2.84867 6.74066 2.97984 6.03385 3.228 5.36475C3.40898 4.87606 3.69731 4.4342 4.07175 4.07175C4.43443 3.69813 4.87627 3.41057 5.36475 3.23025C6.03385 2.98209 6.74066 2.85092 7.45425 2.8425C8.64 2.7885 9 2.775 12 2.775ZM12 0.75C8.9445 0.75 8.56125 0.76275 7.362 0.8175C6.42842 0.83728 5.5049 1.01478 4.6305 1.3425C3.88032 1.62483 3.20059 2.06707 2.6385 2.6385C2.06626 3.20037 1.62324 3.88012 1.34025 4.6305C1.01253 5.5049 0.83503 6.42842 0.81525 7.362C0.76275 8.56125 0.75 8.9445 0.75 12C0.75 15.0555 0.76275 15.4388 0.8175 16.638C0.83728 17.5716 1.01478 18.4951 1.3425 19.3695C1.62549 20.1199 2.06851 20.7996 2.64075 21.3615C3.20262 21.9337 3.88237 22.3768 4.63275 22.6597C5.50715 22.9875 6.43067 23.165 7.36425 23.1847C8.56425 23.2395 8.94675 23.2523 12.0023 23.2523C15.0578 23.2523 15.441 23.2395 16.6403 23.1847C17.5738 23.165 18.4974 22.9875 19.3718 22.6597C20.1188 22.3702 20.7972 21.928 21.3638 21.3615C21.9303 20.795 22.3724 20.1165 22.662 19.3695C22.9897 18.4951 23.1672 17.5716 23.187 16.638C23.2418 15.438 23.2545 15.0555 23.2545 12C23.2545 8.9445 23.2418 8.56125 23.187 7.362C23.1672 6.42842 22.9897 5.5049 22.662 4.6305C22.379 3.88012 21.936 3.20037 21.3638 2.6385C20.8019 2.06626 20.1221 1.62324 19.3718 1.34025C18.4974 1.01253 17.5738 0.83503 16.6403 0.81525C15.4388 0.76275 15.0555 0.75 12 0.75Z" fill="#121127"/>
<path d="M12.0016 6.22656C10.8594 6.22656 9.74284 6.56526 8.79315 7.19982C7.84346 7.83439 7.10326 8.73632 6.66616 9.79156C6.22907 10.8468 6.1147 12.008 6.33753 13.1282C6.56036 14.2485 7.11038 15.2775 7.91803 16.0851C8.72567 16.8928 9.75468 17.4428 10.8749 17.6656C11.9952 17.8885 13.1563 17.7741 14.2116 17.337C15.2668 16.8999 16.1687 16.1597 16.8033 15.21C17.4379 14.2603 17.7766 13.1438 17.7766 12.0016C17.7766 10.47 17.1681 9.00104 16.0851 7.91802C15.0021 6.83499 13.5332 6.22656 12.0016 6.22656ZM12.0016 15.7516C11.2599 15.7516 10.5349 15.5317 9.91818 15.1196C9.3015 14.7076 8.82085 14.1219 8.53702 13.4367C8.25319 12.7514 8.17893 11.9974 8.32362 11.27C8.46832 10.5426 8.82547 9.87435 9.34992 9.34991C9.87436 8.82546 10.5426 8.46831 11.27 8.32361C11.9974 8.17892 12.7514 8.25318 13.4366 8.53701C14.1219 8.82084 14.7075 9.30148 15.1196 9.91817C15.5316 10.5349 15.7516 11.2599 15.7516 12.0016C15.7516 12.9962 15.3565 13.95 14.6532 14.6532C13.95 15.3565 12.9961 15.7516 12.0016 15.7516Z" fill="#121127"/>
<path d="M18.0063 7.34453C18.7519 7.34453 19.3563 6.74011 19.3563 5.99453C19.3563 5.24894 18.7519 4.64453 18.0063 4.64453C17.2608 4.64453 16.6562 5.24894 16.6562 5.99453C16.6562 6.74011 17.2608 7.34453 18.0063 7.34453Z" fill="#121127"/>
</g>
</g>
<defs>
<clipPath id="clip0_1968_113">
<rect width="24" height="24" fill="white"/>
</clipPath>
</defs>
</svg>
