<svg width="24" height="24" viewBox="0 0 24 24" fill="none" xmlns="http://www.w3.org/2000/svg">
<g clip-path="url(#clip0_1968_95)">
<mask id="mask0_1968_95" style="mask-type:luminance" maskUnits="userSpaceOnUse" x="0" y="0" width="24" height="24">
<path d="M24 0H0V24H24V0Z" fill="white"/>
</mask>
<g mask="url(#mask0_1968_95)">
<path d="M23.9969 4.575C23.0969 4.95 22.1969 5.25 21.1469 5.325C22.1969 4.725 22.9469 3.75 23.3219 2.625C22.3469 3.225 21.2969 3.6 20.1719 3.825C19.2719 2.85 17.9969 2.25 16.6469 2.25C13.9469 2.25 11.6969 4.425 11.6969 7.2C11.6969 7.575 11.7719 7.95 11.8469 8.325C7.72188 8.1 4.12188 6.15 1.64688 3.15C1.19688 3.9 0.971875 4.725 0.971875 5.625C0.971875 7.35 1.87188 8.85 3.14688 9.75C2.32188 9.75 1.57188 9.525 0.896875 9.15V9.225C0.896875 11.625 2.62188 13.575 4.87188 14.025C4.42188 14.1 4.04688 14.175 3.59688 14.175C3.29688 14.175 2.99688 14.175 2.69688 14.1C3.29688 16.05 5.17188 17.475 7.27188 17.55C5.62188 18.9 3.44688 19.65 1.12188 19.65C0.746875 19.65 0.296875 19.65 -0.078125 19.575C2.17188 20.925 4.79688 21.75 7.57188 21.75C16.6469 21.75 21.5969 14.25 21.5969 7.725C21.5969 7.5 21.5969 7.275 21.5969 7.125C22.4969 6.375 23.3219 5.55 23.9969 4.575Z" fill="#121127"/>
</g>
</g>
<defs>
<clipPath id="clip0_1968_95">
<rect width="24" height="24" fill="white"/>
</clipPath>
</defs>
</svg>
